<svg width="217" height="166" viewBox="0 0 217 166" fill="none" xmlns="http://www.w3.org/2000/svg">
  <path
    d="M23.3212 50.7879L11.1479 37.1137L10.3217 36.3506L18.8557 21.1436L20.6734 22.8224L35.8757 36.8639L52.8958 52.5842L46.7213 56.4512L40.5468 60.3182L34.0774 58.2922L30.0962 57.0455L29.8803 56.8461L23.3212 50.7879Z"
    fill="#FBD1A2" />
  <path
    d="M58.3294 30.8756L58.8804 32.5997L60.9483 39.0703L61.0844 39.4963L60.855 39.8921L57.3565 45.9268L52.8958 52.5842L35.8757 36.8639L20.6734 22.8224L18.8557 21.1436L28.6012 14.6583L32.8416 13.7141L37.0821 12.7699L46.5971 20.0392L51.181 23.3616L54.9903 27.3657L56.416 28.8643L58.3294 30.8756Z"
    fill="#FFD9B2" />
  <path
    d="M62.1035 41.0452L56.1714 54.0984L55.0147 53.03L52.8958 52.5842L57.3565 45.9268L60.855 39.8921L61.642 40.619L62.1035 41.0452Z"
    fill="#F0A376" />
  <path
    d="M46.7213 56.4512L42.0971 59.3273L42.5008 59.7001L43.3679 60.501L43.781 60.8826L49.9762 57.4905L56.1714 54.0984L55.0147 53.03L52.8958 52.5842L46.7213 56.4512Z"
    fill="#E58F63" />
  <path
    d="M23.3212 50.7879L11.1479 37.1137L9.551 40.5074L7.21797 41.3906L6.00309 46.6484L9.93319 50.2784L12.5814 49.3825L11.657 53.9973L16.5607 58.5265L22.9631 56.5409L23.8081 52.4605L23.3212 50.7879Z"
    fill="#EFE5D9" />
  <path d="M38.2726 8.09702L40.0492 9.13037L32.8416 13.7141L28.6012 14.6583L38.2726 8.09702Z" fill="#ADADAF" />
  <path
    d="M46.5971 20.0392L51.181 23.3616L54.0687 22.535L56.9564 21.7084L58.4371 15.1771L53.6759 10.4756L48.9975 11.9269L49.6807 9.21596L45.7506 5.58596L40.4418 7.06257L40.0492 9.13037L32.8416 13.7141L37.0821 12.7699L46.5971 20.0392Z"
    fill="#EFE5D9" />
  <path
    d="M10.3217 36.3506L18.8557 21.1436L9.50138 10.9922L10.734 14.2573L13.8453 17.1311L11.0668 22.7676L8.11926 20.0451L7.60538 19.9444L4.77904 19.3904L5.84788 22.5043L6.33914 22.958L9.61423 25.983L6.99953 31.7708L3.8882 28.897L3.38763 28.7819L0.384221 28.0911L1.61681 31.3562L1.89803 31.616L5.71067 35.1374L8.88365 39.5872L10.3217 36.3506Z"
    fill="#F8E005" />
  <path
    d="M18.8557 21.1436L28.6012 14.6583L38.2726 8.09702L34.3794 5.41262L30.2856 1.63137L26.933 0.661499L27.9895 3.46016L28.1656 3.92661L30.798 6.6618L25.5386 9.39918L22.591 6.67668L20.839 6.27371L19.087 5.87074L19.4981 7.06838L20.1559 8.9846L22.6122 11.2533L16.1167 14.6719L13.0053 11.7982L9.50138 10.9922L18.8557 21.1436Z"
    fill="#877448" />
  <path
    d="M6.99953 31.7708L3.8882 28.897L3.38763 28.7819L1.1325 23.0099L5.35472 9.89648L3.88093 8.53523L3.44246 5.39598L9.50138 10.9922L10.734 14.2573L13.8453 17.1311L11.0668 22.7676L8.11926 20.0451L7.60538 19.9444L4.77904 19.3904L5.84788 22.5043L6.33914 22.958L9.61423 25.983L6.99953 31.7708Z"
    fill="#B89661" />
  <path
    d="M6.99953 31.7708L3.8882 28.897L3.38763 28.7819L1.1325 23.0099L5.35472 9.89648L3.88093 8.53523L3.44246 5.39598L9.50138 10.9922L10.734 14.2573L13.8453 17.1311L11.0668 22.7676L8.11926 20.0451L7.60538 19.9444L4.77904 19.3904L5.84788 22.5043L6.33914 22.958L9.61423 25.983L6.99953 31.7708Z"
    fill="#B89661" />
  <path
    d="M10.3217 36.3506L18.8557 21.1436L9.50138 10.9922L10.734 14.2573L13.8453 17.1311L11.0668 22.7676L8.11926 20.0451L7.60538 19.9444L4.77904 19.3904L5.84788 22.5043L6.33914 22.958L9.61423 25.983L6.99953 31.7708L3.8882 28.897L3.38763 28.7819L0.384221 28.0911L1.61681 31.3562L1.89803 31.616L5.71067 35.1374L8.88365 39.5872L10.3217 36.3506Z"
    fill="#F8E005" />
  <path
    d="M6.99953 31.7708L3.8882 28.897L3.38763 28.7819L1.1325 23.0099L5.35472 9.89648L3.88093 8.53523L3.44246 5.39598L9.50138 10.9922L10.734 14.2573L13.8453 17.1311L11.0668 22.7676L8.11926 20.0451L7.60538 19.9444L4.77904 19.3904L5.84788 22.5043L6.33914 22.958L9.61423 25.983L6.99953 31.7708Z"
    fill="#B89661" />
  <path
    d="M4.77904 19.3904L5.84788 22.5043L6.33914 22.958L5.93418 24.7106L5.55387 27.0936L3.50252 23.0723L4.77904 19.3904L7.15602 11.5602L9.61234 13.829L7.60538 19.9444L4.77904 19.3904Z"
    fill="#4E548B" />
  <path d="M62.8727 31.7301L58.8804 32.5997L60.9483 39.0703L62.8288 38.677L62.8727 31.7301Z" fill="black" />
  <path d="M54.0687 22.535L51.181 23.3616L54.9903 27.3657L56.416 28.8643L57.8351 26.0138L54.0687 22.535Z"
    fill="black" />
  <path d="M23.8081 52.4605L23.3212 50.7879L29.8803 56.8461L28.9885 57.2453L23.8081 52.4605Z" fill="black" />
  <path
    d="M40.5468 60.3182L42.0971 59.3273L42.5008 59.7001L42.1081 61.7679L34.2409 62.4005L34.0774 58.2922L40.5468 60.3182Z"
    fill="black" />
  <path d="M11.1479 37.1137L10.3217 36.3506L8.88365 39.5872L9.551 40.5074L11.1479 37.1137Z" fill="#ABA195" />
  <path
    d="M12.338 10.878L9.88168 8.60922L21.2193 3.89071L24.4204 5.02453L22.8445 5.08801L20.839 6.27371L19.087 5.87074L19.4981 7.06838L12.338 10.878Z"
    fill="#4C4E83" />
  <path
    d="M13.0053 11.7982L9.50138 10.9922L3.44246 5.39598L6.92177 5.57153L8.23181 6.78153L21.1207 1.36914L27.9895 3.46016L28.1656 3.92661L30.798 6.6618L25.5386 9.39918L22.591 6.67668L20.839 6.27371L19.087 5.87074L19.4981 7.06838L20.1559 8.9846L22.6122 11.2533L16.1167 14.6719L13.0053 11.7982Z"
    fill="#BFA75B" />
  <path
    d="M12.338 10.878L9.88168 8.60922L21.2193 3.89071L24.4204 5.02453L22.8445 5.08801L20.839 6.27371L19.087 5.87074L19.4981 7.06838L12.338 10.878Z"
    fill="#4C4E83" />
  <path
    d="M34.0753 50.0952C33.804 49.8446 33.7874 49.4212 34.0383 49.1496C34.2892 48.878 34.7125 48.8609 34.9838 49.1115C35.2552 49.3621 35.2717 49.7855 35.0208 50.0571C34.7699 50.3287 34.3466 50.3458 34.0753 50.0952Z"
    fill="black" />
  <path d="M27.5318 37.0573L26.1813 37.4772L26.9758 42.4137L28.3263 41.9937L27.5318 37.0573Z" fill="black" />
  <path
    d="M34.0753 50.0952C33.804 49.8446 33.7874 49.4212 34.0383 49.1496C34.2892 48.878 34.7125 48.8609 34.9838 49.1115C35.2552 49.3621 35.2717 49.7855 35.0208 50.0571C34.7699 50.3287 34.3466 50.3458 34.0753 50.0952Z"
    fill="#090909" />
  <path
    d="M65.2793 60.1307L62.624 60.9945L40.7183 68.1211L82.0415 93.7949L101.919 117.234L103.237 118.989L114.55 134.041L123.668 131.408L131.198 129.234L137.509 125.209L141.394 122.731L144.866 116.931L148.339 111.13L150.653 107.263L87.8059 74.2303L65.2793 60.1307Z"
    fill="white" />
  <path
    d="M65.6117 36.1377L65.3388 55.8294L65.2793 60.1307L87.8059 74.2303L150.653 107.263L151.288 105.902L152.138 104.079L158.692 90.0241L159.668 87.933L163.981 78.6824L161.161 73.5064L160.531 72.3502L157.081 66.018L127.922 59.1644L98.445 47.5407L68.9684 35.917L65.6117 36.1377Z"
    fill="#898987" />
  <path d="M134.532 53.0362L91.7863 34.4169L68.9684 35.917L98.445 47.5407L127.922 59.1644L134.532 53.0362Z"
    fill="#5B4D47" />
  <path d="M41.1252 76.8079L40.7183 68.1211L82.0415 93.7949L101.919 117.234L98.2646 120.962L41.1252 76.8079Z"
    fill="#888785" />
  <path
    d="M141.394 122.731L137.509 125.209L168.744 141.625L174.094 131.446L172.289 123.058L148.339 111.13L144.866 116.931L141.394 122.731Z"
    fill="#888886" />
  <path
    d="M158.692 90.0241L152.138 104.079L151.288 105.902L177.464 119.661L186.077 114.02L189.589 106.264L158.692 90.0241Z"
    fill="#898788" />
  <path
    d="M196.654 121.839L193.397 128.035L177.464 119.661L186.077 114.02L189.589 106.264L216.672 105.247L196.654 121.839Z"
    fill="#D8D1D3" />
  <path
    d="M184.881 139.94L189.301 131.531L172.289 123.058L174.094 131.446L168.744 141.625L187.503 165.042L184.881 139.94Z"
    fill="#FAFFFD" />
  <path
    d="M82.0415 93.7949L101.919 117.234L103.237 118.989L114.55 134.041L123.668 131.408L131.198 129.234L137.509 125.209L141.394 122.731L144.866 116.931L148.339 111.13L85.9843 77.6961L62.624 60.9945L40.7183 68.1211L82.0415 93.7949Z"
    fill="#0D4A86" />
  <path
    d="M68.9684 35.917L65.6117 36.1377L65.3388 55.8294L89.4389 71.1235L100.005 76.6772L107.584 80.6605L152.138 104.079L158.692 90.0241L159.668 87.933L163.981 78.6824L161.161 73.5064L160.531 72.3502L157.081 66.018L127.922 59.1644L98.445 47.5407L68.9684 35.917Z"
    fill="#ED2939" />
  <path
    d="M60.0843 70.0146L58.9637 72.1465L59.3836 73.4969L60.7341 73.077L61.8546 70.9451L61.4773 69.5136L60.0843 70.0146Z"
    fill="black" />
  <path
    d="M66.9667 67.3485L65.8461 69.4804L66.266 70.8308L67.6165 70.4109L68.737 68.279L68.3597 66.8475L66.9667 67.3485Z"
    fill="black" />
  <path
    d="M62.9298 77.1782L61.8093 79.3101L62.2292 80.6605L63.5797 80.2406L64.7002 78.1087L64.3229 76.6772L62.9298 77.1782Z"
    fill="black" />
  <path d="M72.7275 45.96L71.607 48.0919L72.0269 49.4423L73.3773 49.0224L74.4979 46.8905L74.1205 45.459L72.7275 45.96Z"
    fill="black" />
  <path
    d="M79.6099 43.2939L78.4894 45.4258L78.9093 46.7762L80.2597 46.3563L81.3803 44.2244L81.0029 42.7929L79.6099 43.2939Z"
    fill="black" />
  <path
    d="M75.5731 53.1236L74.4526 55.2555L74.8725 56.6059L76.2229 56.186L77.3435 54.0541L76.9661 52.6226L75.5731 53.1236Z"
    fill="black" />
  <path d="M29.932 40.0134L29.5121 38.663L24.5756 39.4575L24.9955 40.808L29.932 40.0134Z" fill="black" />
  <path d="M37.8413 24.9654L36.4909 25.3854L37.2854 30.3218L38.6358 29.9019L37.8413 24.9654Z" fill="black" />
  <path d="M40.2416 27.9216L39.8216 26.5712L34.8852 27.3657L35.3051 28.7161L40.2416 27.9216Z" fill="black" />
  <path d="M36.761 27.0638L36.9835 28.446L38.3657 28.2235L38.1432 26.8413L36.761 27.0638Z" fill="black" />
  <path
    d="M101.919 74.2303L100.005 76.6772L107.584 80.6605L109.168 80.2406L110.168 77.6961L110.168 74.2303L110.168 73.077L107.668 74.2303L105.168 71.1235L101.919 72.1465L101.919 74.2303Z"
    fill="#8E3239" />
  <path
    d="M161.161 73.5064L163.981 78.6824L159.668 87.933L158.692 86.9886L158.692 86.4886L158.692 85.4886L158.692 82.9886L159.668 82.9886L159.668 81.9886L159.668 80.6605L161.161 80.6605L159.668 79.4886L160.531 78.6824L159.668 74.9886L161.161 73.5064Z"
    fill="#1C2F53" />
  <path
    d="M123.668 131.408L114.55 134.041L103.237 118.989L105.168 118.989L106.168 118.989L108.168 119.489L108.668 119.489L110.168 121.489L111.168 121.489L111.668 121.489L112.668 121.489L114.55 121.989L115.168 120.962L116.668 120.962L117.168 120.962L117.668 120.489L119.668 122.731L120.168 122.731L120.668 123.989L121.168 124.489L122.168 124.489L121.168 126.489L122.168 126.989L121.168 128.489L121.168 129.989L122.668 129.989L123.668 131.408Z"
    fill="#1C2F53" />
  <path
    d="M61.0844 39.4963L60.855 39.8921C60.855 39.8921 59.7696 41.549 58.3294 43.7987L56.1714 43.2939L54.9903 43.2939L53.6759 43.2939L53.6759 41.9938L51.181 41.3906L51.181 39.4575L51.181 37.4772L52.1676 37.4772L52.1676 36.3506L52.8958 36.3506L54.9903 34.4886L53.6759 34.4886L53.6759 32.9649L51.6676 32.5997L50.6676 31.7301L51.6676 31.7301L51.6676 30.3218L52.1676 30.3218L52.1676 28.8643L53.6759 28.8643L54.0687 27.9216L54.9903 27.3657L56.416 28.8643L58.3294 30.8756L58.8804 32.5997L60.9483 39.0703L61.0844 39.4963Z"
    fill="#311802" fill-opacity="0.26" />
</svg>