<svg width="82" height="279" viewBox="0 0 82 279" fill="none" xmlns="http://www.w3.org/2000/svg">
  <path
    d="M31.387 79.6612L37.8274 62.5237L38.1185 61.4373L55.5499 61.9162L54.9095 64.3063L49.5533 84.2959L43.5566 106.676L37.261 103.009L30.9653 99.3429L29.7487 92.6737L29 88.5696L29.0761 88.2858L31.387 79.6612Z"
    fill="#FBD1A2" />
  <path
    d="M65.3006 101.385L64.0308 102.675L59.2653 107.516L58.9515 107.835L58.4945 107.816L51.525 107.527L43.5566 106.676L49.5533 84.2959L54.9095 64.3063L55.5499 61.9162L65.8246 67.5254L68.6333 70.8397L71.442 74.1539L69.4343 85.9585L68.626 91.5618L66.1908 98.7558L65.3006 101.385Z"
    fill="#FFD9B2" />
  <path
    d="M58.0546 109.458L43.7404 110.28L44.1479 108.759L43.5566 106.676L51.525 107.527L58.4945 107.816L58.2172 108.851L58.0546 109.458Z"
    fill="#F0A376" />
  <path
    d="M37.261 103.009L32.5637 100.254L32.4215 100.785L32.116 101.925L31.9704 102.468L37.8554 106.374L43.7404 110.28L44.1479 108.759L43.5566 106.676L37.261 103.009Z"
    fill="#E58F63" />
  <path
    d="M31.387 79.6612L37.8274 62.5237L34.0804 62.689L32.2132 61.0348L26.9938 62.4056L25.6092 67.5733L27.6343 69.5007L23.1193 70.8295L21.3916 77.2774L26.1279 82.0207L30.133 80.8703L31.387 79.6612Z"
    fill="#EFE5D9" />
  <path d="M76.1322 73.0336L76.0441 75.087L68.6333 70.8397L65.8246 67.5254L76.1322 73.0336Z" fill="#ADADAF" />
  <path
    d="M69.4343 85.9585L68.626 91.5618L70.7012 93.7333L72.7764 95.9048L79.2467 94.1769L81.1931 87.775L77.7319 84.309L80.4494 83.6524L81.8341 78.4847L78.0571 74.4725L76.0441 75.087L68.6333 70.8397L71.442 74.1539L69.4343 85.9585Z"
    fill="#EFE5D9" />
  <path
    d="M38.1185 61.4373L55.5499 61.9162L60.1835 48.913L57.8667 51.5232L56.7705 55.6143L50.4885 55.7773L51.527 51.9015L51.3771 51.3998L50.5525 48.6402L48.2935 51.0351L48.1204 51.681L46.9665 55.9875L40.6268 56.3658L41.723 52.2747L41.592 51.778L40.8061 48.7981L38.4894 51.4082L38.3903 51.778L37.047 56.7913L34.5845 61.6702L38.1185 61.4373Z"
    fill="#F8E005" />
  <path
    d="M55.5499 61.9162L65.8246 67.5254L76.1322 73.0336L76.697 68.3386L78.1394 62.9555L77.4381 59.5367L75.4524 61.774L75.1214 62.1469L73.925 65.7496L69.055 62.3676L70.0935 58.4918L69.6351 56.7535L69.1767 55.0152L68.3078 55.9363L66.9176 57.4101L66.0522 60.6399L60.0041 56.4807L61.1003 52.3896L60.1835 48.913L55.5499 61.9162Z"
    fill="#877448" />
  <path
    d="M40.6268 56.3658L41.723 52.2747L41.592 51.778L45.652 47.0964L59.2242 44.7327L59.7434 42.7948L62.3182 40.9461L60.1835 48.913L57.8667 51.5232L56.7705 55.6143L50.4885 55.7773L51.527 51.9015L51.3771 51.3998L50.5525 48.6402L48.2935 51.0351L48.1204 51.681L46.9665 55.9875L40.6268 56.3658Z"
    fill="#B89661" />
  <path
    d="M40.6268 56.3658L41.723 52.2747L41.592 51.778L45.652 47.0964L59.2242 44.7327L59.7434 42.7948L62.3182 40.9461L60.1835 48.913L57.8667 51.5232L56.7705 55.6143L50.4885 55.7773L51.527 51.9015L51.3771 51.3998L50.5525 48.6402L48.2935 51.0351L48.1204 51.681L46.9665 55.9875L40.6268 56.3658Z"
    fill="#B89661" />
  <path
    d="M38.1185 61.4373L55.5499 61.9162L60.1835 48.913L57.8667 51.5232L56.7705 55.6143L50.4885 55.7773L51.527 51.9015L51.3771 51.3998L50.5525 48.6402L48.2935 51.0351L48.1204 51.681L46.9665 55.9875L40.6268 56.3658L41.723 52.2747L41.592 51.778L40.8061 48.7981L38.4894 51.4082L38.3903 51.778L37.047 56.7913L34.5845 61.6702L38.1185 61.4373Z"
    fill="#F8E005" />
  <path
    d="M40.6268 56.3658L41.723 52.2747L41.592 51.778L45.652 47.0964L59.2242 44.7327L59.7434 42.7948L62.3182 40.9461L60.1835 48.913L57.8667 51.5232L56.7705 55.6143L50.4885 55.7773L51.527 51.9015L51.3771 51.3998L50.5525 48.6402L48.2935 51.0351L48.1204 51.681L46.9665 55.9875L40.6268 56.3658Z"
    fill="#B89661" />
  <path
    d="M50.5525 48.6402L48.2935 51.0351L48.1204 51.681L46.3806 52.138L44.0943 52.9101L46.6995 49.2233L50.5525 48.6402L58.5895 47.1012L57.7241 50.3311L51.3771 51.3998L50.5525 48.6402Z"
    fill="#4E548B" />
  <path d="M66.6581 105.804L64.0308 102.675L59.2653 107.516L60.4883 108.998L66.6581 105.804Z" fill="black" />
  <path d="M70.7012 93.7333L68.626 91.5618L66.1908 98.7558L69.3742 98.6857L70.7012 93.7333Z" fill="black" />
  <path d="M30.133 80.8703L31.387 79.6612L29.0761 88.2858L28.3078 87.682L30.133 80.8703Z" fill="black" />
  <path
    d="M30.9653 99.3429L32.5637 100.254L32.4215 100.785L30.4085 101.399L26.1883 94.7299L29.7487 92.6737L30.9653 99.3429Z"
    fill="black" />
  <path d="M37.8274 62.5237L38.1185 61.4373L34.5845 61.6702L34.0804 62.689L37.8274 62.5237Z" fill="#ABA195" />
  <path
    d="M61.6044 51.3708L62.4698 48.141L71.9214 55.9815L72.4071 59.3425L71.6177 57.9771L69.6351 56.7535L69.1767 55.0152L68.3078 55.9363L61.6044 51.3708Z"
    fill="#4C4E83" />
  <path
    d="M61.1003 52.3896L60.1835 48.913L62.3182 40.9461L63.7816 44.1076L63.32 45.8302L74.1075 54.721L75.4524 61.774L75.1214 62.1469L73.925 65.7496L69.055 62.3676L70.0935 58.4918L69.6351 56.7535L69.1767 55.0152L68.3078 55.9363L66.9176 57.4101L66.0522 60.6399L60.0041 56.4807L61.1003 52.3896Z"
    fill="#BFA75B" />
  <path
    d="M61.6044 51.3708L62.4698 48.141L71.9214 55.9815L72.4071 59.3425L71.6177 57.9771L69.6351 56.7535L69.1767 55.0152L68.3078 55.9363L61.6044 51.3708Z"
    fill="#4C4E83" />
  <path
    d="M37.0036 88.8581C37.0992 88.5014 37.4662 88.2897 37.8234 88.3855C38.1805 88.4812 38.3926 88.8479 38.297 89.2047C38.2014 89.5615 37.8344 89.7731 37.4772 89.6774C37.12 89.5817 36.908 89.2149 37.0036 88.8581Z"
    fill="black" />
  <path d="M45.5 77L44.5 76L40.5 79L41.5 80L45.5 77Z" fill="black" />
  <path
    d="M37.0036 88.8581C37.0992 88.5014 37.4662 88.2897 37.8234 88.3855C38.1805 88.4812 38.3926 88.8479 38.297 89.2047C38.2014 89.5615 37.8344 89.7731 37.4772 89.6774C37.12 89.5817 36.908 89.2149 37.0036 88.8581Z"
    fill="#090909" />
  <path
    d="M42.6381 121.148L40.6381 119.2L24.1381 103.125L20.6381 151.648L9.13812 180.148L0.138118 199.148L12.1381 211.648L18.6381 215.363L22.6381 217.648L29.3881 218.023L36.1381 218.398L40.6381 218.648L40.6381 147.648L42.6381 121.148Z"
    fill="white" />
  <path
    d="M64.0308 110.28L46.4733 119.2L42.6381 121.148L40.6381 147.648L40.6381 218.648L42.1381 218.577L44.1479 218.481L59.6381 217.743L72.1381 217.148L80.1381 205.148L72.6381 176.148L69.213 144.648L65.7879 113.148L64.0308 110.28Z"
    fill="#898987" />
  <path d="M81.1381 179.148L77.7319 132.648L65.7879 113.148L69.213 144.648L72.6381 176.148L81.1381 179.148Z"
    fill="#5B4D47" />
  <path d="M16.6381 107.527L24.1381 103.125L20.6381 151.648L9.13812 180.148L4.13812 178.648L16.6381 107.527Z"
    fill="#888785" />
  <path
    d="M22.6381 217.648L18.6381 215.363L18.6381 250.648L30.1381 250.648L36.7228 245.148L36.1381 218.398L29.3881 218.023L22.6381 217.648Z"
    fill="#888886" />
  <path
    d="M59.6381 217.743L44.1479 218.481L42.1381 218.577L42.1381 248.148L51.1381 253.148L59.6381 252.648L59.6381 217.743Z"
    fill="#898788" />
  <path
    d="M49.1381 266.148L42.1381 266.148L42.1381 248.148L51.1381 253.148L59.6381 252.648L73.1381 276.148L49.1381 266.148Z"
    fill="#D8D1D3" />
  <path
    d="M27.6381 264.148L37.1381 264.148L36.7228 245.148L30.1381 250.648L18.6381 250.648L6.63812 278.148L27.6381 264.148Z"
    fill="#FAFFFD" />
  <path
    d="M20.6381 151.648L9.13812 180.148L0.138118 199.148L12.1381 211.648L18.6381 215.363L22.6381 217.648L29.3881 218.023L36.1381 218.398L36.7228 147.648L40.6381 119.2L24.1381 103.125L20.6381 151.648Z"
    fill="#0D4A86" />
  <path
    d="M65.7879 113.148L64.0308 110.28L46.4733 119.2L44.1479 147.648L44.1479 218.481L59.6381 217.743L72.1381 217.148L80.1381 205.148L72.6381 176.148L69.213 144.648L65.7879 113.148Z"
    fill="#ED2939" />
  <path
    d="M34.0804 62.689L32.2132 61.0348L32.2132 59.3425L32.2132 54.1482L32.2132 49.2233L32.2132 45.8302L32.2132 40.4377L32.2132 35.6482L32.2132 31.1482L32.2132 26.6482L32.2132 21.6482L32.2132 17.1482L32.2132 12.6482L32.2132 9L32.2132 8.64824L32.2132 3.14824L32.2132 0.148236L40.0626 0.148236L40.8061 0.148236L40.8061 4.64824L40.8061 5L40.8061 9.64824L40.8061 14.1482L40.8061 18.6482L40.8061 24.1482L40.8061 28.6482L40.8061 32.6482L40.8061 37.1482L40.8061 42.1482L40.8061 47.0964L40.8061 48.7981L38.4894 51.4082L38.3903 51.778L37.047 56.7913L34.5845 61.6702L34.0804 62.689Z"
    fill="#8E7B59" />
  <path d="M32.2132 8.64824C35 8 37.5 6.5 40.8061 4.64824L40.8061 5C38 7 36.5 8 32.2132 9L32.2132 8.64824Z"
    fill="#452C0E" />
  <path
    d="M32.2132 13.2965C35 12.6482 37.5 11.1482 40.8061 9.29648L40.8061 9.64824C38 11.6482 36.5 12.6482 32.2132 13.6482L32.2132 13.2965Z"
    fill="#452C0E" />
  <path
    d="M32.2132 17.7965C35 17.1482 37.5 15.6482 40.8061 13.7965L40.8061 14.1482C38 16.1482 36.5 17.1482 32.2132 18.1482L32.2132 17.7965Z"
    fill="#452C0E" />
  <path
    d="M32.2132 22.2965C35 21.6482 37.5 20.1482 40.8061 18.2965L40.8061 18.6482C38 20.6482 36.5 21.6482 32.2132 22.6482L32.2132 22.2965Z"
    fill="#452C0E" />
  <path
    d="M32.2132 27.7965C35 27.1482 37.5 25.6482 40.8061 23.7965L40.8061 24.1482C38 26.1482 36.5 27.1482 32.2132 28.1482L32.2132 27.7965Z"
    fill="#452C0E" />
  <path
    d="M32.2132 32.2965C35 31.6482 37.5 30.1482 40.8061 28.2965L40.8061 28.6482C38 30.6482 36.5 31.6482 32.2132 32.6482L32.2132 32.2965Z"
    fill="#452C0E" />
  <path
    d="M32.2132 36.2965C35 35.6482 37.5 34.1482 40.8061 32.2965L40.8061 32.6482C38 34.6482 36.5 35.6482 32.2132 36.6482L32.2132 36.2965Z"
    fill="#452C0E" />
  <path
    d="M32.2132 40.7965C35 40.1482 37.5 38.6482 40.8061 36.7965L40.8061 37.1482C38 39.1482 36.5 40.1482 32.2132 41.1482L32.2132 40.7965Z"
    fill="#452C0E" />
  <path
    d="M32.2132 45.7965C35 45.1482 37.5 43.6482 40.8061 41.7965L40.8061 42.1482C38 44.1482 36.5 45.1482 32.2132 46.1482L32.2132 45.7965Z"
    fill="#452C0E" />
  <path
    d="M32.2132 50.6833C35 50.0351 37.5 48.5351 40.8061 46.6833L40.8061 47.0351C38 49.0351 36.5 50.0351 32.2132 51.0351L32.2132 50.6833Z"
    fill="#452C0E" />
  <path
    d="M32.2132 54.1482C35 53.5 35.1833 53.26 38.4894 51.4082L38.3903 51.778C35.5842 53.778 36.5 53.5 32.2132 54.5L32.2132 54.1482Z"
    fill="#452C0E" />
  <path
    d="M32.2132 58.9908C35 58.3425 33.8189 58.3518 37.1251 56.5L36.9974 56.8896C34.1913 58.8896 36.5 58.3425 32.2132 59.3425L32.2132 58.9908Z"
    fill="#452C0E" />
  <path
    d="M32.2132 4.14824C35 3.5 37.5 2 40.8061 0.148236L40.8061 0.499997C38 2.5 36.5 3.5 32.2132 4.5L32.2132 4.14824Z"
    fill="#452C0E" />
  <path
    d="M31.4722 121.148L29.0637 121.148L28.0637 122.148L29.0637 123.148L31.4722 123.148L32.5637 122.148L31.4722 121.148Z"
    fill="black" />
  <path d="M37.0342 126L34.6257 126L33.6257 127L34.6257 128L37.0342 128L38.1257 127L37.0342 126Z" fill="black" />
  <path d="M26.455 127L24.0466 127L23.0466 128L24.0466 129L26.455 129L27.5466 128L26.455 127Z" fill="black" />
  <path
    d="M58.6471 121.148L56.2386 121.148L55.2386 122.148L56.2386 123.148L58.6471 123.148L59.7386 122.148L58.6471 121.148Z"
    fill="black" />
  <path d="M64.2091 126L61.8006 126L60.8006 127L61.8006 128L64.2091 128L65.3007 127L64.2091 126Z" fill="black" />
  <path d="M53.6299 127L51.2215 127L50.2215 128L51.2215 129L53.6299 129L54.7215 128L53.6299 127Z" fill="black" />
  <path d="M44 80.5L45 79.5L42 75.5L41 76.5L44 80.5Z" fill="black" />
  <path d="M61 80.5L60 79.5L56 82.5L57 83.5L61 80.5Z" fill="black" />
  <path d="M59.5 84L60.5 83L57.5 79L56.5 80L59.5 84Z" fill="black" />
  <path d="M58.64 80.52L57.52 81.36L58.36 82.48L59.48 81.64L58.64 80.52Z" fill="black" />
</svg>