<svg width="203" height="156" viewBox="0 0 203 156" fill="none" xmlns="http://www.w3.org/2000/svg">
  <path
    d="M12.9181 49.4135L21.0063 27.8913L21.3719 26.5269L43.2632 27.1284L42.4589 30.1299L35.7323 55.234L28.2014 83.3397L20.295 78.7353L12.3886 74.1308L10.8607 65.7553L9.92041 60.6011L10.0159 60.2447L12.9181 49.4135Z"
    fill="#FBD1A2" />
  <path
    d="M55.5087 76.6958L53.914 78.3158L47.9292 84.3952L47.5352 84.7955L46.9612 84.7717L38.2085 84.4086L28.2014 83.3397L35.7323 55.234L42.4589 30.1299L43.2632 27.1284L56.1667 34.1727L59.6941 38.3349L63.2214 42.4972L60.6999 57.322L59.6849 64.3589L56.6266 73.3936L55.5087 76.6958Z"
    fill="#FFD9B2" />
  <path
    d="M12.9181 49.4135L21.0063 27.8913L16.3007 28.0989L13.9557 26.0214L7.40097 27.743L5.66201 34.2329L8.20526 36.6533L2.53516 38.3221L0.365409 46.4198L6.31351 52.3768L11.3432 50.932L12.9181 49.4135Z"
    fill="#EFE5D9" />
  <path d="M69.1115 41.0902L69.0009 43.669L59.6941 38.3349L56.1667 34.1727L69.1115 41.0902Z" fill="#ADADAF" />
  <path
    d="M60.6999 57.322L59.6849 64.3589L62.291 67.0861L64.8972 69.8132L73.023 67.643L75.4674 59.6032L71.1206 55.2504L74.5333 54.4259L76.2723 47.936L71.529 42.8973L69.0009 43.669L59.6941 38.3349L63.2214 42.4972L60.6999 57.322Z"
    fill="#EFE5D9" />
  <path
    d="M21.3719 26.5269L43.2632 27.1284L49.0823 10.7983L46.1728 14.0763L44.7961 19.2141L36.9069 19.4188L38.2111 14.5514L38.0228 13.9213L36.9872 10.4557L34.1502 13.4633L33.9328 14.2745L32.4837 19.6827L24.522 20.1578L25.8986 15.02L25.7341 14.3963L24.7472 10.6539L21.8377 13.9319L21.7133 14.3963L20.0263 20.6922L16.9337 26.8194L21.3719 26.5269Z"
    fill="#F8E005" />
  <path
    d="M43.2632 27.1284L56.1667 34.1727L69.1115 41.0902L69.8209 35.1939L71.6324 28.4336L70.7516 24.1401L68.2578 26.9498L67.8422 27.4181L66.3397 31.9425L60.2236 27.6953L61.5278 22.8279L60.9521 20.6448L60.3764 18.4618L59.2853 19.6185L57.5394 21.4693L56.4526 25.5255L48.857 20.3022L50.2337 15.1644L49.0823 10.7983L43.2632 27.1284Z"
    fill="#877448" />
  <path
    d="M24.522 20.1578L25.8986 15.02L25.7341 14.3963L30.833 8.51683L47.8775 5.54841L48.5296 3.1147L51.7632 0.793039L49.0823 10.7983L46.1728 14.0763L44.7961 19.2141L36.9069 19.4188L38.2111 14.5514L38.0228 13.9213L36.9872 10.4557L34.1502 13.4633L33.9328 14.2745L32.4837 19.6827L24.522 20.1578Z"
    fill="#B89661" />
  <path
    d="M24.522 20.1578L25.8986 15.02L25.7341 14.3963L30.833 8.51683L47.8775 5.54841L48.5296 3.1147L51.7632 0.793039L49.0823 10.7983L46.1728 14.0763L44.7961 19.2141L36.9069 19.4188L38.2111 14.5514L38.0228 13.9213L36.9872 10.4557L34.1502 13.4633L33.9328 14.2745L32.4837 19.6827L24.522 20.1578Z"
    fill="#B89661" />
  <path
    d="M21.3719 26.5269L43.2632 27.1284L49.0823 10.7983L46.1728 14.0763L44.7961 19.2141L36.9069 19.4188L38.2111 14.5514L38.0228 13.9213L36.9872 10.4557L34.1502 13.4633L33.9328 14.2745L32.4837 19.6827L24.522 20.1578L25.8986 15.02L25.7341 14.3963L24.7472 10.6539L21.8377 13.9319L21.7133 14.3963L20.0263 20.6922L16.9337 26.8194L21.3719 26.5269Z"
    fill="#F8E005" />
  <path
    d="M24.522 20.1578L25.8986 15.02L25.7341 14.3963L30.833 8.51683L47.8775 5.54841L48.5296 3.1147L51.7632 0.793039L49.0823 10.7983L46.1728 14.0763L44.7961 19.2141L36.9069 19.4188L38.2111 14.5514L38.0228 13.9213L36.9872 10.4557L34.1502 13.4633L33.9328 14.2745L32.4837 19.6827L24.522 20.1578Z"
    fill="#B89661" />
  <path
    d="M36.9872 10.4557L34.1502 13.4633L33.9328 14.2745L31.7479 14.8484L28.8766 15.818L32.1484 11.1879L36.9872 10.4557L47.0805 8.52295L45.9937 12.5791L38.0228 13.9213L36.9872 10.4557Z"
    fill="#4E548B" />
  <path d="M62.291 67.0861L59.6849 64.3589L56.6266 73.3936L60.6245 73.3055L62.291 67.0861Z" fill="black" />
  <path d="M11.3432 50.932L12.9181 49.4135L10.0159 60.2447L9.05109 59.4865L11.3432 50.932Z" fill="black" />
  <path
    d="M12.3886 74.1308L14.3959 75.2752L14.2173 75.9418L11.6892 76.7135L6.38929 68.3375L10.8607 65.7553L12.3886 74.1308Z"
    fill="black" />
  <path d="M21.0063 27.8913L21.3719 26.5269L16.9337 26.8194L16.3007 28.0989L21.0063 27.8913Z" fill="#ABA195" />
  <path
    d="M50.8667 13.8849L51.9536 9.82868L63.8234 19.6752L64.4334 23.8962L63.442 22.1815L60.9521 20.6448L60.3764 18.4618L59.2853 19.6185L50.8667 13.8849Z"
    fill="#4C4E83" />
  <path
    d="M50.2337 15.1644L49.0823 10.7983L51.7632 0.793039L53.601 4.76339L53.0213 6.92669L66.5689 18.0923L68.2578 26.9498L67.8422 27.4181L66.3397 31.9425L60.2236 27.6953L61.5278 22.8279L60.9521 20.6448L60.3764 18.4618L59.2853 19.6185L57.5394 21.4693L56.4526 25.5255L48.857 20.3022L50.2337 15.1644Z"
    fill="#BFA75B" />
  <path
    d="M50.8667 13.8849L51.9536 9.82868L63.8234 19.6752L64.4334 23.8962L63.442 22.1815L60.9521 20.6448L60.3764 18.4618L59.2853 19.6185L50.8667 13.8849Z"
    fill="#4C4E83" />
  <path
    d="M19.9717 60.9635C20.0918 60.5155 20.5527 60.2497 21.0013 60.3699C21.4498 60.4901 21.7161 60.9507 21.5961 61.3987C21.476 61.8468 21.0151 62.1126 20.5665 61.9924C20.118 61.8722 19.8517 61.4115 19.9717 60.9635Z"
    fill="black" />
  <path d="M30.642 46.0714L29.3861 44.8156L24.3627 48.5831L25.6186 49.839L30.642 46.0714Z" fill="black" />
  <path
    d="M19.9717 60.9635C20.0918 60.5155 20.5527 60.2497 21.0013 60.3699C21.4498 60.4901 21.7161 60.9507 21.5961 61.3987C21.476 61.8468 21.0151 62.1126 20.5665 61.9924C20.118 61.8722 19.8517 61.4115 19.9717 60.9635Z"
    fill="#090909" />
  <path d="M28.7582 50.4669L30.0141 49.2111L26.2465 44.1876L24.9907 45.4435L28.7582 50.4669Z" fill="black" />
  <path d="M50.1077 50.4669L48.8519 49.2111L43.8285 52.9786L45.0843 54.2345L50.1077 50.4669Z" fill="black" />
  <path d="M48.224 54.8624L49.4798 53.6066L45.7123 48.5831L44.4564 49.839L48.224 54.8624Z" fill="black" />
  <path d="M47.1439 50.492L45.7373 51.547L46.7923 52.9535L48.1988 51.8986L47.1439 50.492Z" fill="black" />
  <path
    d="M117.319 70.966L118.335 67.5646H121.383L123.415 71.6463L122.399 76.4082L119.351 75.7279L118.335 73.3469L117.319 70.966Z"
    fill="white" />
  <path
    d="M124.431 72.6667L122.061 65.8639L116.642 64.5034L115.288 70.966L117.997 77.7687L123.415 78.7891L124.431 72.6667Z"
    fill="black" />
  <path
    d="M117.319 70.966L118.335 67.5646H121.383L123.415 71.6463L122.399 76.4082L119.351 75.7279L118.335 73.3469L117.319 70.966Z"
    fill="white" />
  <path d="M108.853 74.3673L109.869 69.2653L97 71.6463L112.578 80.8299L108.853 74.3673Z" fill="#F6CF5A" />
  <path
    d="M137.3 127.088L142.042 119.18L146.105 120.201L137.3 132.531H131.882L128.834 133.551L126.802 138.653L125.786 135.592L126.802 133.551L123.415 135.592L122.061 141.034L121.045 135.592L126.802 129.81L132.559 130.49L137.3 127.088Z"
    fill="#F7F5F5" />
  <path
    d="M116.642 60.0816L122.061 56L130.866 57.0204L138.994 60.0816L157.62 69.2653L163.038 87.6327L176.585 115.184L180.649 127.088L203 140.354L179.633 136.952L176.585 156L164.393 129.81L149.153 120.966L146.105 120.201L142.042 119.18L128.834 115.864L116.642 98.8571L113.594 80.8299L110.546 75.0476L111.562 67.2245L116.642 60.0816Z"
    fill="#FFEFC1" />
  <path
    d="M124.431 72.6667L122.061 65.8639L116.642 64.5034L115.288 70.966L117.997 77.7687L123.415 78.7891L124.431 72.6667Z"
    fill="black" />
  <path
    d="M117.319 70.966L118.335 67.5646H121.383L123.415 71.6463L122.399 76.4082L119.351 75.7279L118.335 73.3469L117.319 70.966Z"
    fill="white" />
</svg>