<svg xmlns="http://www.w3.org/2000/svg" width="225" height="204" viewBox="0 0 225 204" fill="none">
  <path
    d="M64.5784 57.2117L115.853 18.105L117.239 42.7278L74.279 75.0753V128.907H67.6272L64.5784 121.183C64.5784 113.641 64.5784 109.412 64.5784 101.871L59.8667 108.388L46.2858 110.32L26.0531 97.7669V85.4555L35.4765 76.5237H57.3722L64.5784 57.2117Z"
    fill="#C4C4C4" />
  <path
    d="M158.536 75.0753L117.239 42.7278L115.853 18.105L167.682 57.2117L175.165 76.5237H197.338L207.316 85.4555V97.7669L186.529 110.32L172.948 108.388L167.682 92.9389L166.69 118.694L166.296 128.907H158.536V75.0753Z"
    fill="#EFE5D9" />
  <path
    d="M100.609 120.217V117.803H92.2944L88.137 119.493V126.735L92.2944 131.563H108.647L116.962 129.632L124.999 131.563H140.798L144.678 127.459V119.493L140.798 117.803H131.928V120.217H138.303L140.798 123.355L138.303 126.735H129.711L116.962 123.355L103.381 126.735H94.5117L92.2944 123.355L94.5117 120.217H100.609Z"
    fill="white" />
  <path
    d="M74.279 128.907H67.6272L65.4099 154.496L115.853 192.878L116.962 129.632L108.647 131.563H92.2944L88.137 126.735V119.493L92.2944 117.803H100.609V120.217H94.5117L92.2944 123.355L94.5117 126.735H103.381L116.962 123.355L117.239 42.7278L74.279 75.0753V128.907Z"
    fill="#FBD1A2" />
  <path
    d="M158.536 75.0753L117.239 42.7278L116.962 123.355L129.711 126.735H138.303L140.798 123.355L138.303 120.217H131.928V117.803H140.798L144.678 119.493V127.459L140.798 131.563H124.999L116.962 129.632L115.853 192.878L166.296 151.84V128.907H158.536V75.0753Z"
    fill="#FFD9B2" />
  <path
    d="M52.3833 183.705L23.8358 154.496L21.2384 144.598L0 162.221V203.5H86.7512C73.3297 195.77 65.8048 191.436 52.3833 183.705Z"
    fill="#0D4A86" />
  <path d="M181.54 179.843L209.256 150.392L211.082 143.633L224.5 154.013V203.5H144.678L181.54 179.843Z"
    fill="#ED2939" />
  <path
    d="M67.6272 128.907L64.5784 121.183L56.5407 118.527L32.4278 124.804L19.4012 137.598L21.2384 144.598L23.8358 154.496L52.3833 183.705C65.8048 191.436 73.3297 195.77 86.7512 203.5H115.853V192.878L65.4099 154.496L67.6272 128.907Z"
    fill="white" />
  <path
    d="M166.296 151.84L115.853 192.878V203.5H144.678L181.54 179.843L209.256 150.392L211.082 143.633L213.691 133.977L200.664 121.183L176.828 114.906L166.69 118.694L166.296 128.907V151.84Z"
    fill="white" />
  <path d="M95.8975 110.32V84.0071H100.609V110.32H95.8975Z" fill="black" />
  <path d="M135.809 84.0071H131.097V110.32H135.809V84.0071Z" fill="black" />
  <path d="M80.0994 191.189L78.4364 183.947L86.1969 182.498L88.4142 189.499L80.0994 191.189Z" fill="#6F5D5E" />
  <path d="M60.9753 174.291L68.7358 172.842L70.9531 179.843L62.9154 181.291L60.9753 174.291Z" fill="#6F5D5E" />
  <path d="M102.827 191.43L95.066 192.878L97.2833 199.879L104.767 197.948L102.827 191.43Z" fill="#6F5D5E" />
  <path d="M80.0994 191.189L78.4364 183.947L86.1969 182.498L88.4142 189.499L80.0994 191.189Z" fill="black" />
  <path d="M60.9753 174.291L68.7358 172.842L70.9531 179.843L62.9154 181.291L60.9753 174.291Z" fill="black" />
  <path d="M102.827 191.43L95.066 192.878L97.2833 199.879L104.767 197.948L102.827 191.43Z" fill="black" />
  <path d="M143.292 190.223L144.955 183.222L152.993 184.671L151.052 191.671L143.292 190.223Z" fill="#6F5D5E" />
  <path d="M128.602 192.396L136.363 193.361L134.7 200.12L126.94 198.913L128.602 192.396Z" fill="#6F5D5E" />
  <path d="M170.177 175.015L162.416 173.325L160.753 180.567L168.514 182.015L170.177 175.015Z" fill="#6F5D5E" />
  <path d="M143.292 190.223L144.955 183.222L152.993 184.671L151.052 191.671L143.292 190.223Z" fill="black" />
  <path d="M128.602 192.396L136.363 193.361L134.7 200.12L126.94 198.913L128.602 192.396Z" fill="black" />
  <path d="M170.177 175.015L162.416 173.325L160.753 180.567L168.514 182.015L170.177 175.015Z" fill="black" />
  <path
    d="M64.5784 57.2117L115.853 18.105L167.682 57.2117V50.2112L162.416 42.7278L115.853 0L67.6272 42.7278L62.9154 50.2112L64.5784 57.2117Z"
    fill="#463D3D" />
  <path d="M64.5784 57.2117L115.853 18.105V0L67.6272 42.7278L62.9154 50.2112L64.5784 57.2117Z" fill="#1D1D1B" />
  <path d="M115.853 18.105L167.682 57.2117V50.2112L162.416 42.7278L115.853 0V18.105Z" fill="#2B2B29" />
</svg>