<svg width="189" height="200" viewBox="0 0 189 200" fill="none" xmlns="http://www.w3.org/2000/svg">
  <path d="M61 76.5L99.5 62.5V131.5L78 125.315L63 121L61 76.5Z" fill="#FCF0BF" />
  <path d="M79.5 109V82H83.5V109H79.5Z" fill="black" />
  <path d="M135.5 123L117.5 127.25L99.5 131.5V62.5L139.5 78.5L135.5 123Z" fill="white" />
  <path d="M115.5 82H111V109H115.5V82Z" fill="black" />
  <path
    d="M61 76.5L99.5 62.5L139.5 78.5L135.5 123L117.5 127.25V139.5L123 145L128.5 166.5L117.947 182L112.5 190L120.5 199.5H189L172 171L179.5 128.5V89L175.5 67.5L163 21L99.5 0L36.5 21L22 74L0 121L8.5 129.5L16 173L1.5 199.5H69L76 192L60.5 166.5L64.5 149.5L76 139.5L78 125.315L63 121L61 76.5Z"
    fill="black" />
  <path d="M76 192L69 199.5H98.5V191L79.5 185L60.5 166.5L76 192Z" fill="#5A5A7E" />
  <path d="M120.5 199.5L112.5 190L117.947 182L98.5 191V199.5H120.5Z" fill="#275CAD" />
  <path
    d="M64.5 149.5L60.5 166.5L79.5 185L98.5 191L117.947 182L128.5 166.5L123 145L117.5 139.5V127.25L99.5 131.5L78 125.315L76 139.5L64.5 149.5Z"
    fill="#FFEFBC" />
  <path d="M64.5 149.5L60.5 166.5L79.5 185L98.5 191L99.5 131.5L78 125.315L76 139.5L64.5 149.5Z" fill="white" />
  <path d="M75 145.5L78.5 144L80.5 149.5L76.5 151L75 145.5Z" fill="#8B7B4B" />
  <path d="M80 154L82.5 151L87 154.5L85 157.5L80 154Z" fill="#8B7B4B" />
  <path d="M89 159.5V155.5L94.5 157L93.5 161L89 159.5Z" fill="#8B7B4B" />
  <path d="M102 160.5L101.5 157L106.5 155.5L108.5 158.5L102 160.5Z" fill="#8B7B4B" />
  <path d="M111.5 157.5L109 154.5L113.5 151L116 154.5L111.5 157.5Z" fill="#8B7B4B" />
  <path d="M115.5 149.5L118 145L121.5 146L119.5 151L115.5 149.5Z" fill="#8B7B4B" />
</svg>