<svg width="210" height="192" viewBox="0 0 210 192" fill="none" xmlns="http://www.w3.org/2000/svg">
  <path d="M89.5 108.5V86.5H93V108.5H89.5Z" fill="black" />
  <path d="M121.5 109.5V87.5H125V109.5H121.5Z" fill="black" />
  <path
    d="M96.5 124.5L107.5 120.5L120 124.5H127.5L129.5 120.5L127.5 117.5H121.5V115H130.5L134 116.5V124.5L130.5 129.5H115L107.5 127.5L100 129.5H85L81.5 124.5V116.5L85 115H93V117.5H87L85 120.5L87 124.5H96.5Z"
    fill="black" />
  <path d="M107.5 181L96.5 157L94.5 151L107.5 141L120 151L116.458 159.5L107.5 181Z" fill="black" />
  <path
    d="M66.5 132L64.7061 108.5L61.5 66.5L107.5 70.5V120.5L96.5 124.5H87L85 120.5L87 117.5H93V115H85L81.5 116.5V124.5L85 129.5H100L107.5 127.5V141L94.5 151L96.5 157L76.5 140.333L66.5 132Z"
    fill="#FBD1A2" />
  <path
    d="M107.5 141L120 151L116.458 159.5L139 142.103L149.5 134L151.093 112.5L154.5 66.5L107.5 70.5V120.5L120 124.5H127.5L129.5 120.5L127.5 117.5H121.5V115H130.5L134 116.5V124.5L130.5 129.5H115L107.5 127.5V141Z"
    fill="#FFD9B2" />
  <path d="M89.5 108.5V86.5H93V108.5H89.5Z" fill="black" />
  <path d="M121.5 109.5V87.5H125V109.5H121.5Z" fill="black" />
  <path d="M118.5 38.5V51.5V56.5H107.25L107.232 52.5L107.19 43L107.17 38.5H118.5Z" fill="#FFED00" />
  <path d="M113.5 52.5V43H107.19L107.232 52.5H113.5Z" fill="#575130" />
  <path d="M96 56.5V51.5V38.5H107.17L107.19 43L107.232 52.5L107.25 56.5H96Z" fill="#C1A75C" />
  <path d="M101.5 43V52.5H107.232L107.19 43H101.5Z" fill="#4B4627" />
  <path d="M79 23L60.5 49L96 51.5V38.5H107.17L107 0L102.5 1.5L79 23Z" fill="#4B4627" />
  <path d="M110.5 0.5L107 0L107.17 38.5H118.5V51.5L156 48L141 26.5L110.5 0.5Z" fill="#575130" />
  <path d="M107.5 70.5L154.5 66.5L156.5 66L156 48L118.5 51.5V56.5H107.25L107.5 70.5Z" fill="#4B4627" />
  <path d="M61.5 66.5L107.5 70.5L107.25 56.5H96V51.5L60.5 49H58V66L61.5 66.5Z" fill="#575130" />
  <path d="M107.5 181L96.5 157L76.5 140.333L106 192H107.5V181Z" fill="#F0A373" />
  <path d="M116.458 159.5L107.5 181V192H110L139 142.103L116.458 159.5Z" fill="#B9743E" />
  <path d="M76.5 140.333L66.5 132L64.7061 108.5L55.5 114.5L42.5 176L70.5 166.5L66 180.5L106 192L76.5 140.333Z"
    fill="#EFE8DB" />
  <path
    d="M149.5 134L139 142.103L110 192L138 184.203L149.5 181L145.707 170L144.5 166.5L146.903 167.343L156.5 170.711L173 176.5L167.5 150.54L164 134.02L160.5 117.5L151.093 112.5L149.5 134Z"
    fill="#EFE8DB" />
  <path
    d="M42.5 176L55.5 114.5L51 117.176L42.5 122.23L41.5 122.824L39.75 123.865L38 124.905L15.9773 138L9.25 142L0 147.5V192H106L66 180.5L70.5 166.5L42.5 176Z"
    fill="#3D2418" />
  <path d="M209.5 192V147.5L177.5 127.908L167.5 150.54L173 176.5L156.5 170.711L147.5 192H209.5Z" fill="#251711" />
  <path d="M177.5 127.908L167.5 150.54L164 134.02L170.5 123.622L177.5 127.908Z" fill="#5A3625" />
  <path d="M160.5 117.5L164 134.02L170.5 123.622L160.5 117.5Z" fill="#251711" />
  <path d="M138 184.203L110 192H134.5L138 184.203Z" fill="#251711" />
  <path d="M146.903 167.343L144.5 166.5L145.707 170L146.903 167.343Z" fill="#251711" />
  <path d="M156.5 170.711L147.5 192H134.5L138 184.203L149.5 181L145.707 170L146.903 167.343L156.5 170.711Z"
    fill="#5A3625" />
  <path d="M31 85L31.0877 85.5L36.9002 118.636L37.3149 121L38 124.905L39.75 123.865L32.5 84.8125L31 85Z"
    fill="#867547" />
  <path d="M34 84.625L41.5 122.824L39.75 123.865L32.5 84.8125L34 84.625Z" fill="#683C41" />
  <path d="M42.5 122.23L42.0159 119.794L41.5318 117.359L35.2982 86L35 84.5L34 84.625L41.5 122.824L42.5 122.23Z"
    fill="#D4B375" />
  <path d="M35.2982 86L41.5 76.5L42.5 88.5L37.5 96L44 89.5L45.5 95.5L40 104.5L37.5 96L35.2982 86Z" fill="#F1E7DB" />
  <path d="M23 81L31.0877 85.5L34 104L26.5 101.5L26 95.5L33 99.5L26 93L23 81Z" fill="#DDD09C" />
  <path d="M42.5 122.23L42.0159 119.794L51 117.176L42.5 122.23Z" fill="#24190F" />
  <path d="M15.9773 138L38 124.905L37.3149 121L16.5 127.5L11.3085 134.654L15.9773 138Z" fill="#24190F" />
  <path d="M41.5318 117.359L50.5 115H52.25H54.6591L51 117.176L42.0159 119.794L41.5318 117.359Z" fill="#877448" />
  <path d="M14.5 125.5L36.9002 118.636L37.3149 121L16.5 127.5L11.3085 134.654L9 133L14.5 125.5Z" fill="#877448" />
  <path d="M9.25 142L9 133L11.3085 134.654L15.9773 138L9.25 142Z" fill="#5C3525" />
</svg>