<svg xmlns="http://www.w3.org/2000/svg" width="225" height="204" viewBox="0 0 225 204" fill="none">
  <path
    d="M68.5 101.973L72.5 61.1045V58.5818L110.5 49.5V55.05V101.468V153.436L94.75 149.148L79 144.859L72.5 131.116L68.5 122.659V122V101.973Z"
    fill="#FBD1A2" />
  <path
    d="M154 129.214L152 132.745L144.494 146L144 146.873L143 147.097L127.75 150.517L110.5 153.436V101.468V55.05V49.5L135.5 55.55L143.5 61.1L151.5 66.65L154 93.3909L155.5 106L154.402 123L154 129.214Z"
    fill="#FFD9B2" />
  <path d="M143 150.909L112.5 161V157.468L110.5 153.436L127.75 150.517L143 147.097V149.5V150.909Z" fill="#F0A376" />
  <path d="M94.75 149.148L82.5 145.768V147V149.648V150.909L97.5 155.955L112.5 161V157.468L110.5 153.436L94.75 149.148Z"
    fill="#E58F63" />
  <path d="M68.5 101.973L72.5 61.1045L64 63.5L59 61L48.5 67V79L54 82L45 87.5V102.473L58 110L66 105.183L68.5 101.973Z"
    fill="#EFE5D9" />
  <path d="M161 61.5L162 66L143.5 61.1L135.5 55.55L161 61.5Z" fill="#ADADAF" />
  <path
    d="M154 93.3909L155.5 106L161.25 109.5L167 113L180 105.5L180.5 90.5L171 85L176.5 82V70L166 63.5L162 66L143.5 61.1L151.5 66.65L154 93.3909Z"
    fill="#EFE5D9" />
  <path
    d="M72.5 58.5818L110.5 49.5L112.5 18.5L109 25.5V35L95.5 39V30L94.8846 29L91.5 23.5L88 30V31.5V41.5L74.5 46V36.5L73.9286 35.5L70.5 29.5L67 36.5V49L64.5 61L72.5 58.5818Z"
    fill="#F8E005" />
  <path
    d="M110.5 49.5L135.5 55.55L161 61.5L159.5 51V38.5L156 31.5L153 37.5L152.5 38.5L152 47L139.5 42.5V33.5L137.5 30L135.5 26.5L134.154 29L132 33V40.5L116.5 35V25.5L112.5 18.5L110.5 49.5Z"
    fill="#877448" />
  <path
    d="M74.5 46V36.5L73.9286 35.5L80 23L108 10V5.5L112.5 0V18.5L109 25.5V35L95.5 39V30L94.8846 29L91.5 23.5L88 30V31.5V41.5L74.5 46Z"
    fill="#B89661" />
  <path
    d="M74.5 46V36.5L73.9286 35.5L80 23L108 10V5.5L112.5 0V18.5L109 25.5V35L95.5 39V30L94.8846 29L91.5 23.5L88 30V31.5V41.5L74.5 46Z"
    fill="#B89661" />
  <path
    d="M72.5 58.5818L110.5 49.5L112.5 18.5L109 25.5V35L95.5 39V30L94.8846 29L91.5 23.5L88 30V31.5V41.5L74.5 46V36.5L73.9286 35.5L70.5 29.5L67 36.5V49L64.5 61L72.5 58.5818Z"
    fill="#F8E005" />
  <path
    d="M74.5 46V36.5L73.9286 35.5L80 23L108 10V5.5L112.5 0V18.5L109 25.5V35L95.5 39V30L94.8846 29L91.5 23.5L88 30V31.5V41.5L74.5 46Z"
    fill="#B89661" />
  <path d="M91.5 23.5L88 30V31.5L84.5 33.5L80 36.5L83.5 27L91.5 23.5L108 15.5V23L94.8846 29L91.5 23.5Z"
    fill="#4E548B" />
  <path d="M48.5 170.5L52 167H59L62.5 170.5L59 174.5H52L48.5 170.5Z" fill="black" />
  <path d="M62.5 191L66 187.5H73L76 191L73 194.5H66L62.5 191Z" fill="black" />
  <path d="M23 191L26.5 187.5H33.5L36.5 191L33.5 194.5H26.5L23 191Z" fill="black" />
  <path d="M148.5 191L152 187.5H158.5L162 191L159 194.694H152L148.5 191Z" fill="black" />
  <path d="M185.5 191L189 187.5H195.79L199 191L196 194.694H189L185.5 191Z" fill="black" />
  <path d="M167.5 170.5L170.5 167H178L181 170.5L178 174.5H170.5L167.5 170.5Z" fill="black" />
  <path d="M159.5 138L152 132.745L144.494 146L148 148.5L159.5 138Z" fill="black" />
  <path d="M161.25 109.5L155.5 106L154.402 123L161.25 121V109.5Z" fill="black" />
  <path d="M66 105.183L68.5 101.973V122L66 121V105.183Z" fill="black" />
  <path d="M79 144.859L82.5 145.768V147L78.5 149.5L65.5 137.5L72.5 131.116L79 144.859Z" fill="black" />
  <path d="M96.75 164L81 150.517L35 166L10 183L0 203.5H96.75V164Z" fill="#004C98" fill-opacity="0.8" />
  <path d="M128.188 164L143 150.909V149.5L189.5 166L215 183L224.5 203.5H128.188V164Z" fill="#ED2939" />
  <path d="M97.5 155.955L82.5 150.909V149.648L81 150.517L96.75 164V203.5H113L112.5 161L97.5 155.955Z" fill="white" />
  <path d="M143 150.909L112.5 161L113 203.5H128.188V164L143 150.909Z" fill="#ADADAF" />
  <path d="M23 191L26.5 187.5H33.5L36.5 191L33.5 194.5H26.5L23 191Z" fill="black" />
  <path d="M62.5 191L66 187.5H73L76 191L73 194.5H66L62.5 191Z" fill="black" />
  <path d="M48.5 170.5L52 167H59L62.5 170.5L59 174.5H52L48.5 170.5Z" fill="black" />
  <path d="M148.5 191L152 187.5H158.5L162 191L159 194.694H152L148.5 191Z" fill="black" />
  <path d="M167.5 170.5L170.5 167H178L181 170.5L178 174.5H170.5L167.5 170.5Z" fill="black" />
  <path d="M185.5 191L189 187.5H195.79L199 191L196 194.694H189L185.5 191Z" fill="black" />
  <path d="M72.5 61.1045V58.5818L64.5 61L64 63.5L72.5 61.1045Z" fill="#ABA195" />
  <path d="M117 23V15.5L142 27L145 34L142.5 31.5L137.5 30L135.5 26.5L134.154 29L117 23Z" fill="#4C4E83" />
  <path
    d="M116.5 25.5L112.5 18.5V0L117.5 6V10L146 23L153 37.5L152.5 38.5L152 47L139.5 42.5V33.5L137.5 30L135.5 26.5L134.154 29L132 33V40.5L116.5 35V25.5Z"
    fill="#BFA75B" />
  <path d="M117 23V15.5L142 27L145 34L142.5 31.5L137.5 30L135.5 26.5L134.154 29L117 23Z" fill="#4C4E83" />
  <path
    d="M85.5 118.5C85.5 117.672 86.1716 117 87 117C87.8284 117 88.5 117.672 88.5 118.5C88.5 119.328 87.8284 120 87 120C86.1716 120 85.5 119.328 85.5 118.5Z"
    fill="black" />
  <path d="M130.5 85H126V96.5H130.5V85Z" fill="black" />
  <path
    d="M68.5 101.973L72.5 61.1045V58.5818L110.5 49.5V55.05V101.468V153.436L94.75 149.148L79 144.859L72.5 131.116L68.5 122.659V122V101.973Z"
    fill="#FBD1A2" />
  <path d="M98.5 85H94.5V96.5H98.5V85Z" fill="black" />
  <path
    d="M85.5 118.5C85.5 117.672 86.1716 117 87 117C87.8284 117 88.5 117.672 88.5 118.5C88.5 119.328 87.8284 120 87 120C86.1716 120 85.5 119.328 85.5 118.5Z"
    fill="black" />
</svg>