<svg width="178" height="224" viewBox="0 0 178 224" fill="none" xmlns="http://www.w3.org/2000/svg">
  <path d="M60.5 12.5L89 0V19.4375L42.5 48.5V31.5L60.5 12.5Z" fill="#1D1D1B" />
  <path d="M137 45.5L90.5 18.5L89 19.4375V0L120.5 15L137 38.5V45.5Z" fill="#2B2B29" />
  <path
    d="M42.5 56.5V48.5L89 19.4375V29.7308L77 44.5L66 70.5L70 95L47.5 63.5L53 121.5L70 135L79.5 126.5H89.5L90 164.5L66.5 155.608L53 150.5L42.5 56.5Z"
    fill="#854806" />
  <path d="M70 135L79.5 126.5H89.5L90 28.5L89 29.7308L77 44.5L66 70.5L70 95L47.5 63.5L53 121.5L70 135Z"
    fill="#FBD1A2" />
  <path d="M131 67V45.5L90 28.5L89.5 126.5H99.5L109 135L125.5 121.5L131 67Z" fill="#FFD9B2" />
  <path d="M73 110V88H77V110H73Z" fill="#1D1D1B" />
  <path d="M108 89H105V111H108V89Z" fill="#1D1D1B" />
  <path
    d="M137 45.5L90.5 18.5L89 19.4375V29.7308L90 28.5L131 45.5V67L125.5 121.5L109 135L99.5 126.5H89.5L90 164.5L108.5 157L127 149.5L137 45.5Z"
    fill="#782926" />
  <path d="M90 173L65 161.5L55.5 172.638L50.5 178.5L58.3222 194.5L66.5 192L90 173Z" fill="#FFF6B9" />
  <path d="M111.5 163.5L90 173L113.5 192L121.25 194L129 178.5L125 178L120.345 173L111.5 163.5Z" fill="white" />
  <path
    d="M66.5 192L90 173V186H88.5L86.5 188L88.5 190.5H90V201.5H88.5L86.5 203.5L87.25 204.75L70.5 207.5L63.9444 206L58.3222 194.5L66.5 192Z"
    fill="#251711" />
  <path d="M90 206H88L87.25 204.75L70.5 207.5L63.9444 206L72.5 223.5H90V221.5H88L86.5 218.5L88 217H90V206Z"
    fill="#1D1D1B" />
  <path
    d="M113.5 192L90 173V186H92.5L94.5 188L92.5 190.5H90V201.5H92L94 203.5L92.5 206H90V217H92L94 219.5L92 221.5H90V223.5H106.5L121.25 194L113.5 192Z"
    fill="#2B2B29" />
  <path d="M88 217H90H92L94 219.5L92 221.5H90H88L86.5 218.5L88 217Z" fill="white" />
  <path d="M88.5 201.5H90H92L94 203.5L92.5 206H90H88L87.25 204.75L86.5 203.5L88.5 201.5Z" fill="white" />
  <path d="M88.5 186H90H92.5L94.5 188L92.5 190.5H90H88.5L86.5 188L88.5 186Z" fill="white" />
  <path d="M0 223.5V199.5L10.75 187.25L19 210L33 223.5H0Z" fill="#251711" />
  <path
    d="M50.5 178.5L58.3222 194.5L63.9444 206L72.5 223.5H33L19 210L10.75 187.25L21.5 175L33 173L55.5 172.638L50.5 178.5Z"
    fill="#3D2418" />
  <path d="M177.5 200.5L168.5 188L161.5 211L145 223.5H177.5V200.5Z" fill="#3D2418" />
  <path d="M129 178.5L125 178L120.345 173L158 174L168.5 186V188L161.5 211L145 223.5H106.5L121.25 194L129 178.5Z"
    fill="#251711" />
  <path d="M90 164.5L66.5 155.608V159.5L65 161.5L90 173V164.5Z" fill="#FBD1A2" />
  <path d="M111.5 163.5L90 173V164.5L108.5 157V159.5L111.5 163.5Z" fill="#FFD9B2" />
</svg>