<svg width="225" height="204" viewBox="0 0 225 204" fill="none" xmlns="http://www.w3.org/2000/svg">
  <path
    d="M66.1295 94.558L70.0867 59.3131V57.1375L107.681 49.3053V54.0916V94.1229V138.941L92.0989 135.242L76.5172 131.543L70.0867 119.692L68.1081 116.045L66.1295 112.398V111.83V94.558Z"
    fill="#FBD1A2" />
  <path
    d="M150.716 118.051L149.726 119.574L148.737 121.097L141.311 132.527L140.822 133.28L139.833 133.473L135.147 134.389L124.746 136.423L110.821 138.477L107.681 138.941V94.1229V54.0916V49.3053L132.413 54.5228L142.801 56.6357L148.737 59.3131L150.716 87.157L151.113 88.1135V112.692L150.716 118.051Z"
    fill="#FFD9B2" />
  <path
    d="M70.0867 57.1375L107.681 49.3053L109.659 22.5707L106.197 28.6075V36.8004L92.8409 40.25V32.4884L92.2321 31.626L88.8836 26.8827L85.421 32.4884V33.782V42.406L72.0653 46.2869V38.094L71.5 37.2316L68.1081 32.0572L64.6455 38.094V48.8741L68.1081 57.1375H70.0867Z"
    fill="#F8E005" />
  <path
    d="M107.681 49.3053L132.413 54.5228L148.737 59.3131L156.157 50.5989V39.8188L152.694 33.782L149.726 38.9564L149.232 39.8188L148.737 47.1493L136.371 43.2684V35.5068L134.392 32.4884L132.413 29.47L131.081 31.626L128.951 35.0756V41.5436L113.616 36.8004V28.6075L109.659 22.5707L107.681 49.3053Z"
    fill="#877448" />
  <path
    d="M72.0653 46.2869V38.094L71.5 37.2316L77.5066 26.4515L105.207 15.2403V11.3594L109.659 6.61622V22.5707L106.197 28.6075V36.8004L92.8409 40.25V32.4884L92.2321 31.626L88.8836 26.8827L85.421 32.4884V33.782V42.406L72.0653 46.2869Z"
    fill="#B89661" />
  <path
    d="M72.0653 46.2869V38.094L71.5 37.2316L77.5066 26.4515L105.207 15.2403V11.3594L109.659 6.61622V22.5707L106.197 28.6075V36.8004L92.8409 40.25V32.4884L92.2321 31.626L88.8836 26.8827L85.421 32.4884V33.782V42.406L72.0653 46.2869Z"
    fill="#B89661" />
  <path
    d="M70.0867 57.1375L107.681 49.3053L109.659 22.5707L106.197 28.6075V36.8004L92.8409 40.25V32.4884L92.2321 31.626L88.8836 26.8827L85.421 32.4884V33.782V42.406L72.0653 46.2869V38.094L71.5 37.2316L68.1081 32.0572L64.6455 38.094V48.8741L68.1081 57.1375H70.0867Z"
    fill="#F8E005" />
  <path
    d="M72.0653 46.2869V38.094L71.5 37.2316L77.5066 26.4515L105.207 15.2403V11.3594L109.659 6.61622V22.5707L106.197 28.6075V36.8004L92.8409 40.25V32.4884L92.2321 31.626L88.8836 26.8827L85.421 32.4884V33.782V42.406L72.0653 46.2869Z"
    fill="#B89661" />
  <path
    d="M88.8836 26.8827L85.421 32.4884V33.782L81.9584 35.5068L77.5066 38.094L80.9691 29.9012L88.8836 26.8827L105.207 19.9835V26.4515L92.2321 31.626L88.8836 26.8827Z"
    fill="#546A87" />
  <path
    d="M114.111 26.4515V19.9835L138.844 29.9012L141.812 35.938L139.338 33.782L134.392 32.4884L132.413 29.47L131.081 31.626L114.111 26.4515Z"
    fill="#4C4E83" />
  <path
    d="M113.616 28.6075L109.659 22.5707V6.61622L110.821 7.8315L114.606 11.7906V15.2403L142.801 26.4515L149.726 38.9564L149.232 39.8188L148.737 47.1493L136.371 43.2684V35.5068L134.392 32.4884L132.413 29.47L131.081 31.626L128.951 35.0756V41.5436L113.616 36.8004V28.6075Z"
    fill="#BFA75B" />
  <path
    d="M114.111 26.4515V19.9835L138.844 29.9012L141.812 35.938L139.338 33.782L134.392 32.4884L132.413 29.47L131.081 31.626L114.111 26.4515Z"
    fill="#2C405D" />
  <path d="M127.467 79.9207H123.015V89.8383H127.467V79.9207Z" fill="black" />
  <path
    d="M66.1295 94.558L70.0867 59.3131V57.1375L107.681 49.3053V54.0916V94.1229V138.941L92.0989 135.242L76.5172 131.543L70.0867 119.692L68.1081 116.045L66.1295 112.398V111.83V94.558Z"
    fill="#FBD1A2" />
  <path d="M95.8088 79.9207H91.8515V89.8383H95.8088V79.9207Z" fill="black" />
  <path d="M0 136.423L35.681 57.1375L37.0491 176.8L0 136.423Z" fill="#E3F1F2" />
  <path d="M225 136.423L186.8 59.3131L184.717 179.005L225 136.423Z" fill="#E2F0F3" />
  <path
    d="M150.716 87.157L151.113 88.1135V112.692L150.716 118.051L149.726 119.574L150.7 142.984L111.241 174.962L110.821 204H184.282L184.499 191.503L184.717 179.005L186.8 59.3131L110.821 0V7.8315L114.606 11.7906V15.2403L142.801 26.4515L149.726 38.9564L152.694 33.782L156.157 39.8188V50.5989L148.737 59.3131L150.716 87.157Z"
    fill="#2C405D" />
  <path
    d="M70.0867 59.3131L66.1295 94.558V111.83V112.398L68.1081 116.045V141.881L111.241 174.962L110.821 204H37.3601L37.0491 176.8L35.681 57.1375L67.6786 32.806L68.1081 32.0572L68.2928 32.339L110.821 0V7.8315L109.659 6.61622L105.207 11.3594V15.2403L77.5066 26.4515L71.5 37.2316L68.2928 32.339L67.6786 32.806L64.6455 38.094V48.8741L68.1081 57.1375H70.0867V59.3131Z"
    fill="#546A87" />
  <path
    d="M92.0989 135.242L107.681 138.941L110.821 138.477L111.241 174.962L68.1081 141.881V116.045L70.0867 119.692L76.5172 131.543L79.9798 132.327L92.0989 135.242Z"
    fill="#546A87" />
  <path
    d="M140.822 133.28L139.833 133.473L135.147 134.389L124.746 136.423L110.821 138.477L111.241 174.962L150.7 142.984L149.726 119.574L148.737 121.097L142.152 131.234L141.311 132.527L140.822 133.28Z"
    fill="#2C405D" />
</svg>