<svg width="200" height="181" viewBox="0 0 200 181" fill="none" xmlns="http://www.w3.org/2000/svg">
  <path
    d="M61.4004 38.2191L104.488 0V145.305L76.8402 135.231L63.9138 130.522L63.2167 104.922L62.5589 80.7649L61.4004 38.2191Z"
    fill="#E89C9D" />
  <path d="M147.576 130.522L104.488 145.305V0L144.704 34.9741L146.037 79.3227L147.576 130.522Z" fill="#E6A5A9" />
  <path d="M86.1759 68.8665H94.0754V80.7649H86.1759V68.8665Z" fill="black" />
  <path d="M80.7899 68.8665L94.0754 56.6076V61.2948L81.8671 70.3088L80.7899 68.8665Z" fill="black" />
  <path d="M116.338 61.2948V55.5259L129.623 67.7849L128.187 68.8665L116.338 61.2948Z" fill="black" />
  <path d="M117.774 76.0777V72.4721H122.442V76.0777H117.774Z" fill="black" />
  <path d="M40 181L37.3429 110.691L0 154.319L10.4129 181H40Z" fill="#D18D8F" />
  <path d="M166.607 100.956V181H200V145.305L166.607 100.956Z" fill="#D39A9C" />
  <path
    d="M104.488 145.305L76.8402 135.231L63.9138 130.522L63.2167 104.922L62.5589 80.7649H51.7056L37.3429 110.691L40 181H68.2226H166.607V100.956L166.248 100.091L163.166 92.6633L157.63 79.3227H146.037L147.576 130.522L104.488 145.305Z"
    fill="#7D6558" />
  <path
    d="M56.0144 171.265L50.5 181H68.2226L71.8133 177.755H68.5817V173.068V170.544L64.2729 169.102L65.3501 171.265H60.3232L58.1688 170.904L56.0144 171.265Z"
    fill="#D18D8F" />
  <path
    d="M159.785 91.5817L163.166 92.6633L166.248 100.091V102.038L164.093 100.956L161.939 99.8745L160.862 102.759L157.63 101.677L156.194 104.201L155.476 100.956L153.68 98.7928L155.476 97.7112V94.8267V92.6633H158.707L159.785 91.5817Z"
    fill="#E89C9D" />
  <path
    d="M63.9138 130.522L63.2167 104.922L66.4273 106.725L71.0952 110.691L68.2226 113.215L72.8905 116.821H82.2262L80.4309 125.835L74.3268 127.277L74.6858 130.161L78.2765 132.685L76.8402 135.231L63.9138 130.522Z"
    fill="#BC7149" fill-opacity="0.42" />
</svg>