<svg width="194" height="221" viewBox="0 0 194 221" fill="none" xmlns="http://www.w3.org/2000/svg">
  <path d="M115.1 96.369H111.388V117.218H115.1V96.369Z" fill="black" />
  <path d="M82.6124 116.291V96.369H86.3254V116.291H82.6124Z" fill="black" />
  <path d="M59.8708 82.0063L97.9282 47.7212V149.65L78.4354 144.917L63.5837 141.31L59.8708 82.0063Z" fill="#FBD1A2" />
  <path d="M82.6124 116.291V96.369H86.3254V116.291H82.6124Z" fill="black" />
  <path d="M128.56 140.384L126.703 140.945L98.3923 149.509L97.9282 149.65V47.7212L135.986 83.8595L128.56 140.384Z"
    fill="#FFD9B2" />
  <path d="M115.1 96.369H111.388V117.218H115.1V96.369Z" fill="black" />
  <path
    d="M97.9282 149.65L78.4354 144.917L76.5789 161.233L70.0813 176.985L63.5837 186.715V195.055H66.3684L69.1531 199.224H75.6507L79.3636 202.931H86.3254L89.1101 206.174H94.2153L97.4641 211.27H98.3923L95.1435 204.784L94.2153 187.178L96.0718 173.742L98.3923 169.109L100.249 165.403L108.603 156.6L113.708 146.87L126.703 140.945L98.3923 149.509L97.9282 149.65Z"
    fill="#E58D64" />
  <path d="M108.603 156.6L100.249 165.403L98.3923 169.109V149.509L126.703 140.945L113.708 146.87L108.603 156.6Z"
    fill="#F0A373" />
  <path
    d="M59.8708 82.0063L97.9282 47.7212L135.986 83.8595L128.56 140.384L126.703 140.945L113.708 146.87L108.603 156.6L100.249 165.403L98.3923 169.109L96.0718 173.742L94.2153 187.178L95.1435 204.784L98.3923 211.27L103.033 220.537H123.455V206.174L148.517 192.738L150.81 183.008L157.799 153.356V96.369L152.23 70.4235L160.584 49.5744L140.163 13.8994L98.3923 0L53.8373 18.9958L34.3445 47.7212L42.2345 70.4235L56.622 82.0063L55.6938 91.2725L52.445 102.855V114.901L58.9426 147.333L64.9761 154.746L61.2632 165.403L47.8038 172.816L45.7689 181.618L45.0191 184.862L50.5885 194.128L58.9426 200.614L64.0478 201.541L63.5837 195.055V186.715L70.0813 176.985L76.5789 161.233L78.4354 144.917L63.5837 141.31L59.8708 82.0063Z"
    fill="black" />
  <path
    d="M66.3684 195.055H63.5837L64.0478 201.541L58.9426 200.614L50.5885 194.128L45.0191 184.862L45.7689 181.618L25.0622 186.715H21.3493L14.8517 189.031V191.811L21.3493 196.908H18.5646V200.614L25.0622 204.784L21.3493 207.564V209.88L28.311 215.44L31.5598 214.514V215.44L37.5933 220.537L41.3062 219.61L42.2345 220.537H103.033L98.3923 211.27H97.4641L94.2153 206.174H89.1101L86.3254 202.931H79.3636L75.6507 199.224H69.1531L66.3684 195.055Z"
    fill="white" />
  <path
    d="M123.455 206.174L148.517 192.738L150.81 183.008L176.828 186.715L179.148 188.568L179.38 189.495L180.541 194.128L174.971 196.908L176.828 201.078L171.722 204.784L167.545 205.711L168.938 209.88L163.833 213.587L156.871 214.514L157.799 215.44L152.694 218.683L142.947 220.537H140.627H123.455V206.174Z"
    fill="white" />
  <path
    d="M174.971 196.908L180.541 194.128L179.38 189.495L183.325 190.885L191.679 202.004L194 221L140.627 220.537H142.947L152.694 218.683L157.799 215.44L156.871 214.514L163.833 213.587L168.938 209.88L167.545 205.711L171.722 204.784L176.828 201.078L174.971 196.908Z"
    fill="#F7A4A4" />
  <path
    d="M14.8517 191.811V189.031L10.2105 191.348L1.85646 202.004L0 221L42.2345 220.537L41.3062 219.61L37.5933 220.537L31.5598 215.44V214.514L28.311 215.44L21.3493 209.88V207.564L25.0622 204.784L18.5646 200.614V196.908H21.3493L14.8517 191.811Z"
    fill="#F7A4A4" />
</svg>