<svg width="64" height="63" viewBox="0 0 64 63" fill="none" xmlns="http://www.w3.org/2000/svg">
  <path
    d="M31.041 1.24631C31.3233 0.290731 32.6767 0.290733 32.959 1.24631L38.0957 18.634C38.2632 19.201 38.8834 19.4997 39.4312 19.2771L56.2281 12.4521C57.1512 12.077 57.9951 13.1352 57.424 13.9517L47.0324 28.8088C46.6935 29.2933 46.8467 29.9644 47.3622 30.2539L63.171 39.1309C64.0398 39.6187 63.7386 40.9383 62.7442 41.0008L44.6494 42.1396C44.0593 42.1767 43.6301 42.7149 43.7252 43.2985L46.6415 61.193C46.8017 62.1764 45.5823 62.7637 44.9134 62.0252L32.7411 48.5881C32.3442 48.15 31.6558 48.15 31.2589 48.5881L19.0866 62.0252C18.4177 62.7637 17.1983 62.1764 17.3585 61.193L20.2748 43.2985C20.3699 42.7149 19.9407 42.1767 19.3506 42.1396L1.25584 41.0008C0.261404 40.9383 -0.0397658 39.6187 0.829037 39.1309L16.6378 30.2539C17.1533 29.9644 17.3065 29.2933 16.9676 28.8088L6.57602 13.9517C6.00493 13.1352 6.8488 12.077 7.77191 12.4521L24.5688 19.2771C25.1166 19.4997 25.7368 19.201 25.9043 18.634L31.041 1.24631Z"
    fill="#FFFCCD" />
</svg>