<svg width="45" height="66" viewBox="0 0 45 66" fill="none" xmlns="http://www.w3.org/2000/svg">
  <path
    d="M22.5966 66C24.8296 66 26.6424 64.3096 26.6424 62.2216C26.6424 60.1364 26.6424 58.446 26.6424 58.446C37.688 57.443 45 51.6601 45 42.2526V42.0988C45 32.5375 38.7768 28.1431 26.4088 25.2912V16.3472C28.1894 16.7785 30.0333 17.3897 31.8354 18.1825C34.7355 19.4567 38.2599 18.658 40.0207 15.8047C41.7829 12.953 40.831 8.94733 37.5664 7.49459C34.3157 6.0497 30.748 5.05431 26.7962 4.62611V2.31222C26.7962 1.03659 24.9862 0 22.7519 0C20.5175 0 18.7061 0.984744 18.7061 2.1948C18.7061 3.40961 18.7061 4.39268 18.7061 4.39268C6.80243 5.24179 0.113261 11.5642 0.113261 20.6623V20.8178C0.113261 30.3777 6.49172 34.621 19.0165 37.4713V46.7249C16.0118 46.2449 13.0701 45.2556 10.0761 43.7404C6.88669 42.1277 2.97948 42.6979 1.04652 45.5297C-0.887854 48.3601 -0.106697 52.3812 3.10869 53.9449C7.83267 56.245 13.1716 57.7477 18.5492 58.2935V62.1482C18.5509 64.2746 20.3623 66 22.5966 66ZM26.3288 38.706C30.3763 39.8614 31.5416 41.0199 31.5416 43.1004V43.2559C31.5416 45.4919 29.9086 46.8011 26.3288 47.1884V38.706ZM13.8037 19.6593V19.5054C13.8037 17.5012 15.2829 15.9585 19.0934 15.6508V23.9791C14.8942 22.822 13.8037 21.6635 13.8037 19.6593Z"
    fill="#FFFCCD" />
</svg>