<svg width="67" height="68" viewBox="0 0 67 68" fill="none" xmlns="http://www.w3.org/2000/svg">
  <path fill-rule="evenodd" clip-rule="evenodd"
    d="M2.25741 47.3692H64.5118C64.778 44.9809 65.0309 42.2955 65.316 39.2662L66.0777 31.1735C66.6758 24.8178 66.9749 21.6399 65.8876 20.3262C65.2994 19.6156 64.4995 19.1802 63.6445 19.1051C62.0637 18.9663 60.0785 21.2262 56.1081 25.7462C54.0548 28.0837 53.0283 29.2525 51.8828 29.4336C51.2484 29.5336 50.6018 29.4306 50.0156 29.1358C48.9582 28.6035 48.253 27.1587 46.8427 24.2689L39.4096 9.03702C36.7449 3.57644 35.4123 0.84613 33.3846 0.84613C31.3568 0.84613 30.0243 3.57644 27.3595 9.03702L19.9263 24.2689C18.5161 27.1586 17.811 28.6035 16.7534 29.1358C16.1674 29.4306 15.5208 29.5336 14.8862 29.4336C13.7409 29.2525 12.7143 28.0837 10.6609 25.7462C6.69056 21.2262 4.70535 18.9663 3.1246 19.1051C2.26947 19.1802 1.46967 19.6156 0.881522 20.3262C-0.205756 21.6399 0.0933208 24.8178 0.691508 31.1735L1.45312 39.2662C1.73824 42.2955 1.991 44.9809 2.25741 47.3692Z"
    fill="#FFFCCD" />
  <path
    d="M37.9029 67.3077C49.6829 67.3077 55.5731 67.3077 59.5029 63.2875C62.5399 60.1807 63.6046 55.4932 64.5108 47.3693H2.25665C3.16292 55.4932 4.22767 60.1807 7.26473 63.2875C11.1947 67.3077 17.0847 67.3077 28.8648 67.3077H37.9029Z"
    fill="#FFFCCD" />
</svg>